<svg width="36" height="36" viewBox="0 0 36 36" fill="none" xmlns="http://www.w3.org/2000/svg">
<path fill-rule="evenodd" clip-rule="evenodd" d="M18 36C27.9411 36 36 27.9411 36 18C36 8.05887 27.9411 0 18 0C8.05887 0 0 8.05887 0 18C0 27.9411 8.05887 36 18 36ZM27.7071 17.2929L21.3431 10.9289C20.9526 10.5384 20.3195 10.5384 19.9289 10.9289C19.5384 11.3195 19.5384 11.9526 19.9289 12.3431L24.5858 17L9 17C8.44772 17 8 17.4477 8 18C8 18.5523 8.44771 19 9 19L24.5858 19L19.9289 23.6569C19.5384 24.0474 19.5384 24.6805 19.9289 25.0711C20.3195 25.4616 20.9526 25.4616 21.3431 25.0711L27.7071 18.7071C28.0976 18.3166 28.0976 17.6834 27.7071 17.2929Z" fill="white"/>
</svg>
