<svg width="18" height="18" viewBox="0 0 18 18" fill="none" xmlns="http://www.w3.org/2000/svg">
<path d="M12.7271 6.59767C13.8383 7.39484 15.1996 7.86387 16.6699 7.86387V5.02457C16.3916 5.02463 16.1141 4.99552 15.8418 4.93764V7.17257C14.3717 7.17257 13.0106 6.70353 11.8991 5.90643V11.7006C11.8991 14.5991 9.55771 16.9487 6.66964 16.9487C5.59204 16.9487 4.59044 16.6218 3.75842 16.061C4.70804 17.0355 6.03235 17.64 7.49747 17.64C10.3857 17.64 12.7272 15.2904 12.7272 12.3917V6.59767H12.7271ZM13.7485 3.73317C13.1806 3.11054 12.8078 2.3059 12.7271 1.41634V1.05115H11.9424C12.1399 2.18178 12.8136 3.14772 13.7485 3.73317ZM5.58513 13.8368C5.26784 13.4193 5.09638 12.9086 5.09715 12.3834C5.09715 11.0577 6.16808 9.98286 7.48932 9.98286C7.73555 9.9828 7.98031 10.0206 8.21497 10.0954V7.19261C7.94074 7.15489 7.66397 7.13888 7.38732 7.14475V9.40412C7.15248 9.32939 6.90761 9.29144 6.66132 9.29167C5.34007 9.29167 4.2692 10.3664 4.2692 11.6923C4.2692 12.6298 4.80449 13.4414 5.58513 13.8368Z" fill="white"/>
<path d="M11.8991 5.90637C13.0106 6.70347 14.3717 7.17251 15.8418 7.17251V4.93758C15.0212 4.76216 14.2947 4.33179 13.7485 3.73317C12.8135 3.14766 12.1399 2.18172 11.9424 1.05115H9.88135V12.3916C9.87669 13.7137 8.80759 14.7842 7.48918 14.7842C6.71227 14.7842 6.02205 14.4125 5.58493 13.8368C4.80435 13.4414 4.26906 12.6297 4.26906 11.6924C4.26906 10.3666 5.33993 9.29174 6.66118 9.29174C6.91432 9.29174 7.15831 9.33129 7.38718 9.40418V7.14481C4.54985 7.20364 2.26794 9.53026 2.26794 12.3917C2.26794 13.8201 2.83619 15.115 3.75846 16.0611C4.59048 16.6218 5.59207 16.9488 6.66968 16.9488C9.55781 16.9488 11.8991 14.5991 11.8991 11.7006V5.90637H11.8991Z" fill="white"/>
<path d="M15.8418 4.9376V4.33329C15.1018 4.33442 14.3763 4.12644 13.7485 3.73314C14.3042 4.34379 15.0361 4.76485 15.8418 4.9376ZM11.9424 1.05117C11.9235 0.943122 11.9091 0.834358 11.899 0.725179V0.359985H9.05323V11.7006C9.04869 13.0225 7.97964 14.093 6.66112 14.093C6.27402 14.093 5.90854 14.0007 5.58487 13.8369C6.022 14.4125 6.71221 14.7841 7.48912 14.7841C8.80741 14.7841 9.87669 13.7138 9.8813 12.3917V1.05117H11.9424ZM7.38724 7.14484V6.50151C7.14945 6.46889 6.90972 6.45252 6.66968 6.45264C3.78132 6.45258 1.43994 8.80227 1.43994 11.7006C1.43994 13.5176 2.36014 15.119 3.75846 16.061C2.83619 15.1149 2.26795 13.82 2.26795 12.3916C2.26795 9.53028 4.54979 7.20367 7.38724 7.14484Z" fill="white"/>
</svg>
