<svg width="20" height="18" viewBox="0 0 20 18" fill="none" xmlns="http://www.w3.org/2000/svg">
<path d="M0.909668 17.4999H7.85294M7.85294 17.4999H7.96639M7.85294 17.4999C7.87183 17.5 7.89074 17.5001 7.90967 17.5001C7.92859 17.5001 7.9475 17.5 7.96639 17.4999M7.85294 17.4999C4.01307 17.4694 0.909668 14.3467 0.909668 10.4997V6.42273C0.909668 5.91293 1.32272 5.49988 1.83252 5.49988H13.9864C14.4962 5.49988 14.9097 5.91293 14.9097 6.42273V6.49988M7.96639 17.4999H14.9097M7.96639 17.4999C11.8063 17.4694 14.9097 14.3467 14.9097 10.4997M14.9097 6.49988H16.4097C17.7904 6.49988 18.9097 7.61917 18.9097 8.99988C18.9097 10.3806 17.7904 11.4999 16.4097 11.4999H14.9097V10.4997M14.9097 6.49988V10.4997M11.9097 0.499878L10.9097 2.49988M8.90967 0.499878L7.90967 2.49988M5.90967 0.499878L4.90967 2.49988" stroke="black" stroke-opacity="0.5" stroke-linecap="round" stroke-linejoin="round"/>
</svg>
